/vscmnt/brussel_pixiu_data/_data_brussel/112/vsc11236/PredSimResults/SUBJ11opt3D/expIG/worker_08.mot
version=1
nRows=8
nColumns=50
inDegrees=yes
endheader
                time	         pelvis_tilt	         pelvis_list	     pelvis_rotation	           pelvis_tx	           pelvis_ty	           pelvis_tz	       hip_flexion_r	     hip_adduction_r	      hip_rotation_r	        knee_angle_r	       ankle_angle_r	         mtp_angle_r	       hip_flexion_l	     hip_adduction_l	      hip_rotation_l	        knee_angle_l	       ankle_angle_l	         mtp_angle_l	    lumbar_extension	      lumbar_bending	     lumbar_rotation	 ercspn_r/activation	 intobl_r/activation	 extobl_r/activation	    abd_r/activation	    add_r/activation	hamstrings_r/activation	bifemsh_r/activation	glut_max_r/activation	iliopsoas_r/activation	rect_fem_r/activation	  vasti_r/activation	gastroc_r/activation	 soleus_r/activation	tib_ant_r/activation	 ercspn_l/activation	 intobl_l/activation	 extobl_l/activation	    abd_l/activation	    add_l/activation	hamstrings_l/activation	bifemsh_l/activation	glut_max_l/activation	iliopsoas_l/activation	rect_fem_l/activation	  vasti_l/activation	gastroc_l/activation	 soleus_l/activation	tib_ant_l/activation	
          1.82564812	         -5.00876651	          2.06148277	         -6.77329360	          2.37334256	          0.93431635	          0.00586127	        -14.04536278	         -3.74974551	         -0.54434500	        -11.76801317	          9.96151503	         34.32872103	         33.67055500	         -1.42821629	         -6.30561408	         -9.00350892	          2.59355301	          0.26000625	        -13.91232536	          0.12572090	          2.62068725	          0.01372060	          0.00999999	          0.00999999	          0.03164985	          0.02045374	          0.01229696	          0.26042888	          0.01740341	          0.09959350	          0.01000002	          0.01000000	          0.17569833	          0.31216672	          0.01361539	          0.05277432	          0.23981286	          0.04217267	          0.00999999	          0.22196275	          0.05113432	          0.18842420	          0.06390050	          0.11434401	          0.03563068	          0.01025572	          0.01000000	          0.00999999	          0.47435441	
          1.83781911	         -5.05597638	          2.15732153	         -6.96852662	          2.39323201	          0.93218129	          0.00515481	        -14.90250241	         -4.06534443	         -0.78862766	        -12.14237098	          8.75971624	         36.21060758	         33.66595642	         -1.28043611	         -6.42343110	        -10.73297266	          1.96654546	          0.25392781	        -13.45015139	         -0.32990010	          2.84122252	          0.04950491	          0.00999999	          0.01000000	          0.02631239	          0.09916744	          0.01202927	          0.21650990	          0.01446848	          0.11931130	          0.01000000	          0.01000000	          0.14606839	          0.28175723	          0.01131927	          0.04387441	          0.19937058	          0.03506063	          0.00999999	          0.24591940	          0.04575425	          0.15664816	          0.17232604	          0.09506092	          0.02962189	          0.00999999	          0.01446837	          0.01202850	          0.51195495	
          1.84999009	         -5.08167374	          2.23972983	         -7.12853140	          2.41346503	          0.93028351	          0.00440247	        -15.60873558	         -4.36593129	         -1.06919279	        -12.83709407	          7.44739186	         38.08284020	         33.56035789	         -1.17098192	         -6.49146968	        -12.59651770	          1.52902428	          0.21430731	        -12.96439849	         -0.77351556	          3.05186201	          0.05018869	          0.00999999	          0.00999999	          0.02187504	          0.08244375	          0.01000065	          0.17999746	          0.01202851	          0.20489976	          0.01000004	          0.01000002	          0.12143527	          0.24867828	          0.00999999	          0.03997351	          0.16574852	          0.02914797	          0.10082851	          0.28361706	          0.04862801	          0.13023086	          0.17447026	          0.07902975	          0.02462643	          0.00999999	          0.01202841	          0.01000000	          0.59135030	
          1.86216108	         -5.08900697	          2.29378550	         -7.24744897	          2.43368351	          0.92882878	          0.00357283	        -16.02044368	         -4.63768068	         -1.36026506	        -14.05838410	          6.04292234	         39.89339045	         33.46800716	         -1.08559346	         -6.59563730	        -14.48735467	          0.95496006	          0.17844660	        -12.50015854	         -1.18569063	          3.24531368	          0.07421449	          0.00999999	          0.00999999	          0.01818601	          0.11983402	          0.01000015	          0.14964252	          0.01000001	          0.28034769	          0.01000004	          0.01202848	          0.10095631	          0.20674093	          0.00999999	          0.05519564	          0.13779653	          0.02423243	          0.14081359	          0.36694457	          0.04089936	          0.10826860	          0.20999091	          0.06570209	          0.02047340	          0.01000001	          0.00999999	          0.00999999	          0.64309266	
          1.87433207	         -5.07669509	          2.32682708	         -7.32704564	          2.45368590	          0.92790088	          0.00267729	        -16.03064411	         -4.89063704	         -1.64746113	        -15.97608248	          4.60090500	         41.51029445	         33.47117039	         -1.02226138	         -6.72324621	        -16.59213550	          0.59139250	          0.11967497	        -12.07868605	         -1.57706731	          3.41518908	          0.11892432	          0.00999999	          0.00999999	          0.01511911	          0.18649944	          0.01000043	          0.12440673	          0.00999999	          0.31105397	          0.01000000	          0.00999999	          0.08393093	          0.17187593	          0.00999999	          0.06805391	          0.11455838	          0.02014585	          0.17743624	          0.41909932	          0.04277561	          0.09001007	          0.22647175	          0.05462203	          0.01702075	          0.06418438	          0.00999999	          0.00999999	          0.65991182	
          1.88650306	         -5.04606912	          2.34436105	         -7.36708179	          2.47335849	          0.92759503	          0.00174221	        -15.56036994	         -5.13139869	         -1.94765284	        -18.70452279	          3.15373746	         42.71149344	         33.48995074	         -0.96508165	         -6.84505961	        -18.79055486	          0.61415256	          0.05920490	        -11.70614950	         -1.95556879	          3.55531305	          0.14881552	          0.00999999	          0.00999999	          0.01256940	          0.21773983	          0.01000000	          0.10945344	          0.00999999	          0.25859752	          0.00999999	          0.00999999	          0.06977674	          0.14289061	          0.00999999	          0.05657725	          0.09523914	          0.01674843	          0.19051404	          0.41867192	          0.03576534	          0.07483069	          0.23558314	          0.04541051	          0.01415036	          0.11325050	          0.00999999	          0.00999999	          0.63562606	
          1.89867404	         -4.99971996	          2.35008034	         -7.36585962	          2.49261277	          0.92798732	          0.00078970	        -14.57640194	         -5.37253706	         -2.28119407	        -22.29106688	          1.80563732	         43.03657163	         33.44088809	         -0.89325080	         -6.92518887	        -20.92811194	          1.04398255	          0.01671199	        -11.38691428	         -2.32606686	          3.66019898	          0.15253312	          0.00999999	          0.00999999	          0.01044969	          0.23220261	          0.01000000	          0.09099517	          0.00999999	          0.21498738	          0.00999999	          0.00999999	          0.05800952	          0.11879339	          0.00999999	          0.04703601	          0.07917792	          0.01392396	          0.20066023	          0.41324908	          0.03862813	          0.06221117	          0.20581359	          0.03775244	          0.01176404	          0.14825763	          0.00999999	          0.00999999	          0.55217720	
          1.91084503	         -4.94131513	          2.33930269	         -7.32198630	          2.51141766	          0.92908201	         -0.00015194	        -13.09716987	         -5.61854733	         -2.63318759	        -26.63951128	          0.37258211	         42.51310240	         33.24194394	         -0.79346730	         -6.92655528	        -22.84085406	          1.82196059	          0.03927061	        -11.11947635	         -2.68532293	          3.72642884	          0.14144103	          0.00999999	          0.01000000	          0.00999999	          0.27820784	          0.01157463	          0.08941553	          0.00999999	          0.17873169	          0.00999999	          0.00999999	          0.04822674	          0.09875995	          0.00999999	          0.03910381	          0.06582528	          0.01157581	          0.21060087	          0.38338829	          0.04439686	          0.05171982	          0.17110498	          0.03138583	          0.01000000	          0.22148895	          0.00999999	          0.00999999	          0.45905748	
